<?xml version="1.0" encoding="UTF-8" standalone="no"?>
<!DOCTYPE svg PUBLIC "-//W3C//DTD SVG 20010904//EN"
              "http://www.w3.org/TR/2001/REC-SVG-20010904/DTD/svg10.dtd">

<svg xmlns="http://www.w3.org/2000/svg"
     width="22.575mm" height="22.575mm"
     viewBox="0 0 64 64">
  <path id="Unnamed"
        fill="none" stroke="black" stroke-width="1"
        d="M 32.02,23.96
           C 32.02,23.96 19.93,35.02 19.93,35.02
             19.93,35.02 12.96,28.00 12.96,28.00
             12.96,28.00 31.93,11.02 31.93,11.02
             31.93,11.02 51.04,28.04 51.04,28.02
             51.04,28.00 44.00,35.00 44.00,35.00
             44.00,35.00 32.02,23.96 32.02,23.96 Z
           M 32.00,29.07
           C 32.00,29.07 51.02,47.04 51.02,47.04
             51.02,47.04 44.00,53.00 44.00,53.00
             44.00,53.00 32.02,42.02 32.02,42.02
             32.02,42.02 19.96,53.02 19.96,53.02
             19.96,53.02 13.02,46.96 13.02,46.96
             13.02,46.96 32.00,29.07 32.00,29.07 Z
           M 48.29,37.09" />
</svg>
