<?xml version="1.0" encoding="UTF-8" standalone="no"?>
<!DOCTYPE svg PUBLIC "-//W3C//DTD SVG 20010904//EN"
              "http://www.w3.org/TR/2001/REC-SVG-20010904/DTD/svg10.dtd">

<svg xmlns="http://www.w3.org/2000/svg"
     width="28.2187mm" height="28.2187mm"
     viewBox="0 0 80 80">
  <path id="Unnamed"
        fill="none" stroke="black" stroke-width="1"
        d="M 40.00,3.00
           C 40.00,3.00 27.87,27.00 27.87,27.00
             27.87,27.00 0.09,31.52 0.09,31.52
             0.09,31.52 19.91,50.04 19.91,50.04
             19.91,50.04 15.09,78.04 15.09,78.04
             15.09,78.04 39.96,65.04 39.96,65.04
             39.96,65.04 64.91,77.96 64.91,77.96
             64.91,77.96 60.00,50.13 60.00,50.13
             60.00,50.13 80.00,31.48 80.00,31.48
             80.00,31.48 52.04,27.00 52.04,27.00
             52.04,27.00 40.00,3.00 40.00,3.00 Z" />
</svg>
